<svg width="16" height="14" viewBox="0 0 16 14" fill="none" xmlns="http://www.w3.org/2000/svg">
<path d="M7.54492 13.5146C7.33529 13.5146 7.13932 13.4714 6.95703 13.3848C6.77474 13.2982 6.58333 13.1592 6.38281 12.9678L0.941406 7.90234C0.80013 7.77018 0.695312 7.62435 0.626953 7.46484C0.563151 7.30078 0.53125 7.14583 0.53125 7C0.53125 6.84961 0.563151 6.69466 0.626953 6.53516C0.690755 6.37565 0.793294 6.2321 0.93457 6.10449L6.38281 1.05957C6.60612 0.849935 6.80208 0.701823 6.9707 0.615234C7.14388 0.528646 7.33301 0.485352 7.53809 0.485352C7.86165 0.485352 8.13053 0.597005 8.34473 0.820312C8.55892 1.03906 8.66602 1.30566 8.66602 1.62012V3.8418H8.78906C9.89648 3.8418 10.8672 4.01497 11.7012 4.36133C12.5352 4.70768 13.2301 5.21354 13.7861 5.87891C14.3467 6.53971 14.766 7.34408 15.0439 8.29199C15.3265 9.23991 15.4678 10.3154 15.4678 11.5186C15.4678 12.1566 15.3721 12.6351 15.1807 12.9541C14.9893 13.2777 14.7295 13.4395 14.4014 13.4395C14.1689 13.4395 13.9593 13.3825 13.7725 13.2686C13.5856 13.1592 13.4124 12.9587 13.2529 12.667C12.9567 12.1201 12.6058 11.6644 12.2002 11.2998C11.7946 10.9307 11.3138 10.6549 10.7578 10.4727C10.2018 10.2904 9.54557 10.1992 8.78906 10.1992H8.66602V12.4004C8.66602 12.7194 8.55892 12.9837 8.34473 13.1934C8.13053 13.4076 7.86393 13.5146 7.54492 13.5146ZM7.05273 11.2998C7.12565 11.2998 7.16211 11.2588 7.16211 11.1768V8.83203C7.16211 8.6862 7.23503 8.61328 7.38086 8.61328H8.19434C9.18783 8.61328 10.0583 8.70215 10.8057 8.87988C11.5576 9.05762 12.1911 9.33105 12.7061 9.7002C13.221 10.0648 13.6152 10.5273 13.8887 11.0879C13.8978 11.1107 13.9069 11.1266 13.916 11.1357C13.9251 11.1449 13.9365 11.1494 13.9502 11.1494C13.9821 11.1494 13.998 11.1289 13.998 11.0879C13.9844 10.4316 13.9001 9.81641 13.7451 9.24219C13.5947 8.66341 13.3691 8.13932 13.0684 7.66992C12.7721 7.19596 12.3962 6.79036 11.9404 6.45312C11.4847 6.11133 10.9447 5.84928 10.3203 5.66699C9.70052 5.4847 8.99186 5.39355 8.19434 5.39355H7.38086C7.23503 5.39355 7.16211 5.32064 7.16211 5.1748V2.7959C7.16211 2.71842 7.12565 2.67969 7.05273 2.67969C7.02995 2.67969 7.00944 2.68424 6.99121 2.69336C6.97298 2.70247 6.95475 2.71387 6.93652 2.72754L2.5752 6.87695C2.52507 6.92253 2.5 6.96354 2.5 7C2.5 7.01823 2.50456 7.03874 2.51367 7.06152C2.52734 7.07975 2.54785 7.10026 2.5752 7.12305L6.94336 11.2451C6.97982 11.2816 7.01628 11.2998 7.05273 11.2998Z" fill="#6D68EF"/>
</svg>
