<svg width="18" height="14" viewBox="0 0 18 14" fill="none" xmlns="http://www.w3.org/2000/svg">
<path d="M13.8877 5.82764C13.6553 5.82764 13.4548 5.74561 13.2861 5.58154C13.1221 5.41292 13.04 5.2124 13.04 4.97998C13.04 4.743 13.1221 4.54248 13.2861 4.37842C13.4548 4.21436 13.6553 4.13232 13.8877 4.13232C14.1247 4.13232 14.3252 4.21436 14.4893 4.37842C14.6533 4.54248 14.7354 4.743 14.7354 4.97998C14.7354 5.2124 14.6533 5.41292 14.4893 5.58154C14.3252 5.74561 14.1247 5.82764 13.8877 5.82764ZM2.86816 13.7437C2.08887 13.7437 1.49186 13.5363 1.07715 13.1216C0.662435 12.7114 0.455078 12.119 0.455078 11.3442V4.146C0.455078 3.37126 0.662435 2.77881 1.07715 2.36865C1.49186 1.95394 2.08887 1.74658 2.86816 1.74658H4.57715C4.84147 1.74658 5.04199 1.71924 5.17871 1.66455C5.31999 1.60986 5.48177 1.49593 5.66406 1.32275L6.19727 0.789551C6.38867 0.602702 6.58919 0.468262 6.79883 0.38623C7.01302 0.299642 7.29102 0.256348 7.63281 0.256348H10.3398C10.6816 0.256348 10.9596 0.299642 11.1738 0.38623C11.388 0.468262 11.5908 0.602702 11.7822 0.789551L12.3086 1.32275C12.4316 1.44124 12.541 1.53239 12.6367 1.59619C12.737 1.65544 12.8441 1.69645 12.958 1.71924C13.0719 1.73747 13.2178 1.74658 13.3955 1.74658H15.125C15.9043 1.74658 16.5013 1.95394 16.916 2.36865C17.3353 2.77881 17.5449 3.37126 17.5449 4.146V11.3442C17.5449 12.119 17.3353 12.7114 16.916 13.1216C16.5013 13.5363 15.9043 13.7437 15.125 13.7437H2.86816ZM3.05957 11.98H14.9336C15.207 11.98 15.4167 11.9116 15.5625 11.7749C15.7083 11.6382 15.7812 11.424 15.7812 11.1323V4.36475C15.7812 4.07308 15.7083 3.85889 15.5625 3.72217C15.4167 3.58089 15.207 3.51025 14.9336 3.51025H12.8076C12.4977 3.51025 12.2539 3.47835 12.0762 3.41455C11.903 3.35075 11.7275 3.2277 11.5498 3.04541L11.0371 2.50537C10.8594 2.31396 10.693 2.18636 10.5381 2.12256C10.3877 2.0542 10.1667 2.02002 9.875 2.02002H8.09766C7.80599 2.02002 7.58268 2.0542 7.42773 2.12256C7.27734 2.18636 7.10872 2.31624 6.92188 2.51221L6.42285 3.04541C6.24967 3.2277 6.07422 3.35075 5.89648 3.41455C5.71875 3.47835 5.47494 3.51025 5.16504 3.51025H3.05957C2.78613 3.51025 2.5765 3.58089 2.43066 3.72217C2.28939 3.85889 2.21875 4.07308 2.21875 4.36475V11.1323C2.21875 11.424 2.28939 11.6382 2.43066 11.7749C2.5765 11.9116 2.78613 11.98 3.05957 11.98ZM9 11.2007C8.4987 11.2007 8.02702 11.1073 7.58496 10.9204C7.14746 10.7336 6.76237 10.4761 6.42969 10.1479C6.10156 9.81527 5.84408 9.43018 5.65723 8.99268C5.47038 8.55062 5.37695 8.07666 5.37695 7.5708C5.37695 7.06494 5.47038 6.59326 5.65723 6.15576C5.84408 5.71826 6.10156 5.33317 6.42969 5.00049C6.76237 4.66781 7.14746 4.40804 7.58496 4.22119C8.02702 4.03434 8.4987 3.94092 9 3.94092C9.66992 3.94092 10.2783 4.1027 10.8252 4.42627C11.3766 4.74984 11.8141 5.18734 12.1377 5.73877C12.4613 6.28564 12.623 6.89632 12.623 7.5708C12.623 8.07666 12.5296 8.55062 12.3428 8.99268C12.1559 9.43018 11.8962 9.81527 11.5635 10.1479C11.2308 10.4761 10.8457 10.7336 10.4082 10.9204C9.9707 11.1073 9.5013 11.2007 9 11.2007ZM9 9.65576C9.38281 9.65576 9.73145 9.56234 10.0459 9.37549C10.3604 9.18864 10.611 8.93799 10.7979 8.62354C10.9847 8.30908 11.0781 7.95817 11.0781 7.5708C11.0781 7.18343 10.9847 6.83252 10.7979 6.51807C10.611 6.20361 10.3604 5.95296 10.0459 5.76611C9.73145 5.57926 9.38281 5.48584 9 5.48584C8.61719 5.48584 8.26855 5.57926 7.9541 5.76611C7.63965 5.95296 7.38672 6.20361 7.19531 6.51807C7.00846 6.83252 6.91504 7.18343 6.91504 7.5708C6.91504 7.95817 7.00846 8.30908 7.19531 8.62354C7.38672 8.93799 7.63965 9.18864 7.9541 9.37549C8.26855 9.56234 8.61719 9.65576 9 9.65576Z" fill="#6D68EF"/>
</svg>
