<svg width="14" height="18" viewBox="0 0 14 18" fill="none" xmlns="http://www.w3.org/2000/svg">
<path d="M6.23438 17.063C5.13151 17.063 4.16764 16.8306 3.34277 16.3657C2.5179 15.9054 1.8776 15.2492 1.42188 14.397C0.966146 13.5493 0.738281 12.5467 0.738281 11.3892V5.22998C0.738281 4.76058 0.884115 4.37549 1.17578 4.07471C1.46745 3.77393 1.84115 3.62354 2.29688 3.62354C2.40169 3.62354 2.50195 3.63949 2.59766 3.67139C2.69336 3.70329 2.77995 3.74658 2.85742 3.80127V3.35693C2.85742 2.91032 2.9987 2.54574 3.28125 2.26318C3.56836 1.98063 3.93978 1.83936 4.39551 1.83936C4.60514 1.83936 4.78971 1.89404 4.94922 2.00342C5.05404 1.67529 5.23633 1.41553 5.49609 1.22412C5.76042 1.03271 6.07259 0.937012 6.43262 0.937012C6.7972 0.937012 7.10938 1.03271 7.36914 1.22412C7.62891 1.41553 7.80892 1.67985 7.90918 2.01709C8.00033 1.95785 8.09831 1.91455 8.20312 1.88721C8.30794 1.85531 8.41732 1.83936 8.53125 1.83936C9.01888 1.83936 9.41309 1.98747 9.71387 2.28369C10.0146 2.57992 10.165 2.96956 10.165 3.45264V8.34717C10.165 8.37907 10.1787 8.39502 10.2061 8.39502C10.2288 8.39502 10.2471 8.38363 10.2607 8.36084L10.5 7.77295C10.6185 7.51318 10.7894 7.31722 11.0127 7.18506C11.2406 7.04834 11.4821 6.97998 11.7373 6.97998C12.1794 6.97998 12.5439 7.12809 12.8311 7.42432C13.1182 7.71598 13.2617 8.07601 13.2617 8.50439C13.2617 8.76872 13.2116 9.0376 13.1113 9.31104L11.8672 12.7905C11.3613 14.2033 10.6367 15.2674 9.69336 15.9829C8.75 16.703 7.59701 17.063 6.23438 17.063ZM6.19336 15.5522C7.24154 15.5522 8.11881 15.3016 8.8252 14.8003C9.53158 14.299 10.099 13.4696 10.5273 12.312L11.8398 8.78467C11.8809 8.66618 11.8854 8.56592 11.8535 8.48389C11.8216 8.3973 11.7601 8.33577 11.6689 8.29932C11.5869 8.26742 11.5026 8.26969 11.416 8.30615C11.3294 8.33805 11.2611 8.40869 11.2109 8.51807L10.2266 10.7397C10.14 10.9357 10.0238 11.077 9.87793 11.1636C9.73665 11.2456 9.58626 11.2866 9.42676 11.2866C9.23079 11.2866 9.0599 11.2251 8.91406 11.1021C8.77279 10.9744 8.70215 10.7899 8.70215 10.5483V3.60303C8.70215 3.50277 8.67025 3.42074 8.60645 3.35693C8.54264 3.28857 8.46061 3.25439 8.36035 3.25439C8.26009 3.25439 8.17806 3.28857 8.11426 3.35693C8.05501 3.42074 8.02539 3.50277 8.02539 3.60303V8.38818C8.02539 8.56136 7.96159 8.70947 7.83398 8.83252C7.71094 8.95557 7.56283 9.01709 7.38965 9.01709C7.21191 9.01709 7.06152 8.95557 6.93848 8.83252C6.81543 8.70947 6.75391 8.56136 6.75391 8.38818V2.70752C6.75391 2.60726 6.72201 2.52295 6.6582 2.45459C6.5944 2.38623 6.51237 2.35205 6.41211 2.35205C6.31185 2.35205 6.22982 2.38623 6.16602 2.45459C6.10221 2.52295 6.07031 2.60726 6.07031 2.70752V8.60693C6.07031 8.78467 6.00651 8.93278 5.87891 9.05127C5.75586 9.16976 5.60775 9.229 5.43457 9.229C5.26139 9.229 5.111 9.16976 4.9834 9.05127C4.86035 8.93278 4.79883 8.78467 4.79883 8.60693V3.60303C4.79883 3.50277 4.76465 3.42074 4.69629 3.35693C4.63249 3.28857 4.55046 3.25439 4.4502 3.25439C4.34993 3.25439 4.27018 3.28857 4.21094 3.35693C4.15169 3.42074 4.12207 3.50277 4.12207 3.60303V8.97607C4.12207 9.15381 4.05827 9.30192 3.93066 9.42041C3.80306 9.5389 3.65267 9.59814 3.47949 9.59814C3.31087 9.59814 3.16276 9.5389 3.03516 9.42041C2.90755 9.30192 2.84375 9.15381 2.84375 8.97607V5.40771C2.84375 5.30745 2.81185 5.22542 2.74805 5.16162C2.68424 5.09326 2.60221 5.05908 2.50195 5.05908C2.40169 5.05908 2.31966 5.09326 2.25586 5.16162C2.19661 5.22542 2.16699 5.30745 2.16699 5.40771V11.2593C2.16699 12.1662 2.32878 12.9409 2.65234 13.5835C2.97591 14.2215 3.43848 14.7091 4.04004 15.0464C4.6416 15.3836 5.35938 15.5522 6.19336 15.5522Z" fill="#6D68EF"/>
</svg>
