<svg width="16" height="16" viewBox="0 0 16 16" fill="none" xmlns="http://www.w3.org/2000/svg">
<path d="M7.99609 15.2188C6.99805 15.2188 6.06152 15.0319 5.18652 14.6582C4.31608 14.2845 3.55046 13.7673 2.88965 13.1064C2.22884 12.4456 1.71159 11.68 1.33789 10.8096C0.964193 9.93457 0.777344 8.99805 0.777344 8C0.777344 7.17513 0.911784 6.389 1.18066 5.6416C1.4541 4.89421 1.8278 4.21517 2.30176 3.60449C2.49772 3.33561 2.73242 3.1875 3.00586 3.16016C3.2793 3.12826 3.514 3.20573 3.70996 3.39258C3.91048 3.58398 3.99935 3.79134 3.97656 4.01465C3.95378 4.23796 3.85807 4.47266 3.68945 4.71875C3.3431 5.17448 3.07194 5.68262 2.87598 6.24316C2.68001 6.80371 2.57975 7.38932 2.5752 8C2.5752 8.7474 2.71419 9.44922 2.99219 10.1055C3.27018 10.7572 3.65755 11.3314 4.1543 11.8281C4.65104 12.3249 5.22754 12.7145 5.88379 12.9971C6.54004 13.2796 7.24414 13.4209 7.99609 13.4209C8.7526 13.4209 9.45898 13.2796 10.1152 12.9971C10.7715 12.7145 11.3457 12.3249 11.8379 11.8281C12.3346 11.3314 12.722 10.7572 13 10.1055C13.278 9.44922 13.417 8.7474 13.417 8C13.417 7.22982 13.2712 6.50977 12.9795 5.83984C12.6924 5.16992 12.2913 4.58431 11.7764 4.08301C11.266 3.57715 10.6735 3.1875 9.99902 2.91406C9.32454 2.64062 8.59994 2.5153 7.8252 2.53809L8.61816 1.51953V3.88477C8.61816 4.10352 8.5498 4.28581 8.41309 4.43164C8.27637 4.57292 8.10091 4.64355 7.88672 4.64355C7.67253 4.64355 7.49707 4.57292 7.36035 4.43164C7.22363 4.28581 7.15527 4.10352 7.15527 3.88477V1.58105C7.15527 1.3304 7.23047 1.13444 7.38086 0.993164C7.53581 0.851888 7.74316 0.78125 8.00293 0.78125C9.00098 0.78125 9.93522 0.968099 10.8057 1.3418C11.6807 1.71094 12.4486 2.22591 13.1094 2.88672C13.7702 3.54753 14.2874 4.31543 14.6611 5.19043C15.0348 6.06087 15.2217 6.9974 15.2217 8C15.2217 8.99805 15.0348 9.93457 14.6611 10.8096C14.2874 11.68 13.7702 12.4456 13.1094 13.1064C12.4486 13.7673 11.6807 14.2845 10.8057 14.6582C9.93522 15.0319 8.9987 15.2188 7.99609 15.2188ZM7.99609 9.2373C7.77279 9.2373 7.56771 9.18262 7.38086 9.07324C7.19401 8.95931 7.03906 8.80436 6.91602 8.6084L5.00195 5.60059C4.90169 5.43197 4.87435 5.2793 4.91992 5.14258C4.96549 5.0013 5.05664 4.90788 5.19336 4.8623C5.33464 4.81217 5.4873 4.8418 5.65137 4.95117L8.66602 6.9541C8.84831 7.07259 8.98958 7.22526 9.08984 7.41211C9.1901 7.5944 9.24023 7.79036 9.24023 8C9.24023 8.3418 9.11947 8.63346 8.87793 8.875C8.63639 9.11654 8.34245 9.2373 7.99609 9.2373Z" fill="#6D68EF"/>
</svg>
