<svg width="16" height="18" viewBox="0 0 16 18" fill="none" xmlns="http://www.w3.org/2000/svg">
<path d="M3.4541 16.4375C2.82975 16.4375 2.36491 16.278 2.05957 15.959C1.75879 15.6445 1.6084 15.1501 1.6084 14.4756L3.82324 12.5068C3.94173 12.3975 4.06706 12.3154 4.19922 12.2607C4.33594 12.2061 4.47266 12.1787 4.60938 12.1787C4.75065 12.1787 4.88965 12.2083 5.02637 12.2676C5.16309 12.3223 5.29297 12.4043 5.41602 12.5137L6.50977 13.498L9.2373 11.0918C9.37858 10.9688 9.52214 10.8799 9.66797 10.8252C9.81836 10.766 9.97331 10.7363 10.1328 10.7363C10.3014 10.7363 10.4609 10.766 10.6113 10.8252C10.7663 10.8844 10.9098 10.9756 11.042 11.0986L14.3984 14.2363V14.5439C14.3984 15.182 14.2458 15.6559 13.9404 15.9658C13.6351 16.2803 13.1748 16.4375 12.5596 16.4375H3.4541ZM6.09961 11.2354C5.82161 11.2354 5.56869 11.167 5.34082 11.0303C5.11296 10.8936 4.93066 10.7113 4.79395 10.4834C4.66178 10.2555 4.5957 10.0049 4.5957 9.73145C4.5957 9.45801 4.66178 9.20736 4.79395 8.97949C4.93066 8.75163 5.11296 8.57161 5.34082 8.43945C5.56869 8.30273 5.82161 8.23438 6.09961 8.23438C6.37305 8.23438 6.6237 8.30273 6.85156 8.43945C7.07943 8.57161 7.25944 8.75163 7.3916 8.97949C7.52832 9.20736 7.59668 9.45801 7.59668 9.73145C7.59668 10.0049 7.52832 10.2555 7.3916 10.4834C7.25944 10.7113 7.07943 10.8936 6.85156 11.0303C6.6237 11.167 6.37305 11.2354 6.09961 11.2354ZM3.07812 17.0527C2.29883 17.0527 1.70182 16.8454 1.28711 16.4307C0.872396 16.0205 0.665039 15.4281 0.665039 14.6533V7.60547C0.665039 6.83073 0.872396 6.23828 1.28711 5.82812C1.70182 5.41341 2.29883 5.20605 3.07812 5.20605H12.9219C13.7012 5.20605 14.2982 5.41341 14.7129 5.82812C15.1276 6.23828 15.335 6.83073 15.335 7.60547V14.6533C15.335 15.4281 15.1276 16.0205 14.7129 16.4307C14.2982 16.8454 13.7012 17.0527 12.9219 17.0527H3.07812ZM3.26953 15.2891H12.7236C12.9971 15.2891 13.2067 15.2184 13.3525 15.0771C13.4984 14.9404 13.5713 14.7262 13.5713 14.4346V7.82422C13.5713 7.53255 13.4984 7.31836 13.3525 7.18164C13.2067 7.04036 12.9971 6.96973 12.7236 6.96973H3.26953C2.99609 6.96973 2.78646 7.04036 2.64062 7.18164C2.49935 7.31836 2.42871 7.53255 2.42871 7.82422V14.4346C2.42871 14.7262 2.49935 14.9404 2.64062 15.0771C2.78646 15.2184 2.99609 15.2891 3.26953 15.2891ZM2.27832 4.07129C2.32389 3.72493 2.44466 3.45378 2.64062 3.25781C2.84115 3.06185 3.14193 2.96387 3.54297 2.96387H12.4639C12.8604 2.96387 13.1589 3.06185 13.3594 3.25781C13.5599 3.45378 13.6829 3.72493 13.7285 4.07129H2.27832ZM3.64551 1.96582C3.66829 1.6377 3.77995 1.38704 3.98047 1.21387C4.18099 1.03613 4.45671 0.947266 4.80762 0.947266H11.1924C11.5433 0.947266 11.819 1.03613 12.0195 1.21387C12.2201 1.38704 12.334 1.6377 12.3613 1.96582H3.64551Z" fill="#6D68EF"/>
</svg>
