<svg width="19" height="20" viewBox="0 0 19 20" fill="none" xmlns="http://www.w3.org/2000/svg">
<path d="M8.61648 19.8661C8.25491 19.8661 7.93999 19.7639 7.67173 19.5596C7.40347 19.3553 7.23143 19.078 7.15562 18.7278L6.79696 17.178L6.56077 17.0992L5.22238 17.9223C4.91912 18.1149 4.59837 18.1879 4.26013 18.1412C3.92772 18.1003 3.63321 17.9515 3.37661 17.6946L2.15193 16.4776C1.8895 16.2149 1.73788 15.9172 1.69705 15.5845C1.65623 15.2518 1.73204 14.9336 1.92449 14.6301L2.76427 13.2905L2.68554 13.0716L1.1372 12.7126C0.793125 12.6309 0.516114 12.4558 0.306169 12.1873C0.102056 11.9187 0 11.6065 0 11.2504V9.52551C0 9.16944 0.102056 8.86007 0.306169 8.59739C0.510282 8.32889 0.787293 8.15085 1.1372 8.06329L2.66805 7.69555L2.75552 7.45915L1.91575 6.11951C1.72913 5.82182 1.65331 5.50661 1.68831 5.17389C1.72913 4.84117 1.88075 4.54348 2.14319 4.2808L3.36786 3.055C3.62446 2.804 3.91897 2.65515 4.25138 2.60845C4.58379 2.56176 4.90163 2.6318 5.20488 2.81859L6.55203 3.65039L6.79696 3.55408L7.15562 2.00431C7.23143 1.65991 7.40347 1.38557 7.67173 1.18127C7.93999 0.971127 8.25491 0.866058 8.61648 0.866058H10.3923C10.7538 0.866058 11.0658 0.971127 11.3283 1.18127C11.5907 1.38557 11.7627 1.65991 11.8444 2.00431L12.203 3.55408L12.448 3.65039L13.7951 2.81859C14.0984 2.6318 14.4162 2.56176 14.7486 2.60845C15.081 2.65515 15.3755 2.804 15.6321 3.055L16.8568 4.2808C17.1192 4.54348 17.268 4.84117 17.3029 5.17389C17.3438 5.50661 17.2709 5.82182 17.0843 6.11951L16.2445 7.45915L16.3407 7.69555L17.8628 8.06329C18.2069 8.14501 18.481 8.32013 18.6851 8.58864C18.895 8.85715 19 9.16944 19 9.52551V11.2504C19 11.6065 18.895 11.9187 18.6851 12.1873C18.481 12.4558 18.2069 12.6309 17.8628 12.7126L16.3232 13.0716L16.2357 13.2905L17.0755 14.6301C17.2621 14.9336 17.335 15.2518 17.2942 15.5845C17.2592 15.9172 17.1105 16.2149 16.8481 16.4776L15.6234 17.6946C15.3668 17.9515 15.0694 18.1003 14.7311 18.1412C14.3987 18.1879 14.0809 18.1149 13.7776 17.9223L12.4305 17.0992L12.203 17.178L11.8444 18.7278C11.7627 19.078 11.5907 19.3553 11.3283 19.5596C11.0658 19.7639 10.7538 19.8661 10.3923 19.8661H8.61648ZM8.83517 18.2813H10.1736C10.3135 18.2813 10.3923 18.2141 10.4098 18.0799L10.9346 15.926C11.2262 15.8618 11.4974 15.7771 11.7482 15.672C11.9989 15.5611 12.2322 15.4386 12.448 15.3043L14.3287 16.4601C14.4512 16.5418 14.5591 16.5301 14.6524 16.425L15.5796 15.4882C15.673 15.4065 15.6817 15.3014 15.6059 15.173L14.4512 13.2992C14.5737 13.0891 14.6874 12.8556 14.7924 12.5988C14.9032 12.3419 14.9906 12.0764 15.0548 11.802L17.2155 11.2854C17.3496 11.2621 17.4167 11.1803 17.4167 11.0403V9.72689C17.4167 9.59263 17.3496 9.51091 17.2155 9.48173L15.0635 8.96514C14.9936 8.67328 14.9002 8.39601 14.7836 8.13334C14.6728 7.87067 14.5649 7.64594 14.4599 7.45915L15.6146 5.57666C15.6963 5.45408 15.6875 5.34317 15.5884 5.24394L14.6611 4.33334C14.562 4.23994 14.4512 4.22535 14.3287 4.28956L12.448 5.43657C12.2322 5.31398 11.996 5.20016 11.7394 5.09509C11.4886 4.98418 11.2204 4.89371 10.9346 4.82366L10.4098 2.65223C10.3923 2.51798 10.3135 2.45085 10.1736 2.45085H8.83517C8.68938 2.45085 8.60482 2.51798 8.58149 2.65223L8.07413 4.80615C7.7942 4.8762 7.51719 4.96959 7.24309 5.08633C6.97483 5.19724 6.74156 5.31107 6.54328 5.42781L4.66252 4.28956C4.54589 4.22535 4.438 4.23703 4.33886 4.32458L3.40285 5.24394C3.30955 5.34317 3.3008 5.45408 3.37661 5.57666L4.53131 7.45915C4.43217 7.64594 4.32428 7.87067 4.20764 8.13334C4.09101 8.39601 4.00061 8.67328 3.93646 8.96514L1.78453 9.48173C1.6504 9.51091 1.58333 9.59263 1.58333 9.72689V11.0403C1.58333 11.1803 1.6504 11.2621 1.78453 11.2854L3.93646 11.7932C4.00645 12.0734 4.09684 12.3419 4.20764 12.5988C4.31845 12.8498 4.43217 13.0833 4.5488 13.2992L3.38536 15.1817C3.31538 15.3043 3.32413 15.4094 3.4116 15.4969L4.34761 16.425C4.44091 16.5301 4.54589 16.5447 4.66252 16.4688L6.55203 15.3043C6.7678 15.4386 7.00399 15.5611 7.26059 15.672C7.52302 15.7771 7.79128 15.8618 8.06538 15.926L8.58149 18.0799C8.60482 18.2141 8.68938 18.2813 8.83517 18.2813ZM9.5 13.6845C8.88766 13.6845 8.32781 13.5356 7.82044 13.2379C7.31891 12.9403 6.91943 12.5404 6.62201 12.0384C6.33042 11.5306 6.18462 10.9731 6.18462 10.3661C6.18462 9.75315 6.33042 9.1957 6.62201 8.69371C6.91943 8.19171 7.31891 7.79186 7.82044 7.49417C8.32781 7.19647 8.88766 7.04763 9.5 7.04763C10.1123 7.04763 10.6693 7.19647 11.1708 7.49417C11.6723 7.79186 12.0718 8.19171 12.3692 8.69371C12.6667 9.1957 12.8154 9.75315 12.8154 10.3661C12.8154 10.9731 12.6667 11.5306 12.3692 12.0384C12.0718 12.5404 11.6723 12.9403 11.1708 13.2379C10.6693 13.5356 10.1123 13.6845 9.5 13.6845ZM9.5 12.1785C9.83241 12.1785 10.1357 12.0968 10.4098 11.9333C10.6839 11.7699 10.9025 11.551 11.0658 11.2767C11.2291 11.0023 11.3108 10.6988 11.3108 10.3661C11.3108 10.0275 11.2291 9.72397 11.0658 9.45546C10.9025 9.18111 10.6839 8.96222 10.4098 8.79878C10.1357 8.63534 9.83241 8.55362 9.5 8.55362C9.16176 8.55362 8.85559 8.63534 8.58149 8.79878C8.31323 8.96222 8.09745 9.18111 7.93416 9.45546C7.77087 9.72397 7.68923 10.0275 7.68923 10.3661C7.68923 10.6988 7.77087 11.0023 7.93416 11.2767C8.09745 11.551 8.31323 11.7699 8.58149 11.9333C8.85559 12.0968 9.16176 12.1785 9.5 12.1785Z" fill="#1A1A1A"/>
</svg>
