<svg width="20" height="19" viewBox="0 0 20 19" fill="none" xmlns="http://www.w3.org/2000/svg">
<path d="M4.51226 18.3661C3.5251 18.3661 2.77472 18.1216 2.26113 17.6328C1.74754 17.1439 1.49075 16.4171 1.49075 15.4524V5.01027H3.10155V15.5306C3.10155 15.9674 3.22161 16.3031 3.46173 16.5377C3.70185 16.7724 4.04536 16.8897 4.49225 16.8897H15.5078C15.948 16.8897 16.2881 16.7724 16.5283 16.5377C16.7751 16.3031 16.8984 15.9674 16.8984 15.5306V5.01027H18.5093V15.4524C18.5093 16.4106 18.2525 17.1341 17.7389 17.623C17.2253 18.1184 16.4749 18.3661 15.4877 18.3661H4.51226ZM6.70335 9.68382C6.48991 9.68382 6.31649 9.61864 6.18309 9.48827C6.05636 9.35791 5.993 9.18518 5.993 8.97008V8.6572C5.993 8.4421 6.05636 8.27263 6.18309 8.14879C6.31649 8.01842 6.48991 7.95324 6.70335 7.95324H13.3067C13.5201 7.95324 13.6935 8.01842 13.8269 8.14879C13.9603 8.27263 14.027 8.4421 14.027 8.6572V8.97008C14.027 9.18518 13.9603 9.35791 13.8269 9.48827C13.6935 9.61864 13.5201 9.68382 13.3067 9.68382H6.70335ZM1.90095 5.74357C1.28731 5.74357 0.817075 5.56758 0.490245 5.2156C0.163415 4.86361 0 4.39105 0 3.79789V2.31174C0 1.71207 0.170085 1.2395 0.510255 0.894032C0.850425 0.54205 1.31399 0.366058 1.90095 0.366058H18.0991C18.7127 0.366058 19.1829 0.54205 19.5098 0.894032C19.8366 1.2395 20 1.71207 20 2.31174V3.79789C20 4.39105 19.8366 4.86361 19.5098 5.2156C19.1829 5.56758 18.7127 5.74357 18.0991 5.74357H1.90095ZM2.31116 4.2672H17.6989C17.9523 4.2672 18.1291 4.21179 18.2291 4.10099C18.3358 3.99018 18.3892 3.81418 18.3892 3.57301V2.53662C18.3892 2.28893 18.3358 2.11294 18.2291 2.00864C18.1291 1.89783 17.9523 1.84243 17.6989 1.84243H2.31116C2.0577 1.84243 1.87761 1.89783 1.77089 2.00864C1.66417 2.11294 1.61081 2.28893 1.61081 2.53662V3.57301C1.61081 3.81418 1.66417 3.99018 1.77089 4.10099C1.87761 4.21179 2.0577 4.2672 2.31116 4.2672Z" fill="#1A1A1A"/>
</svg>
